<svg width="26" height="32" viewBox="0 0 26 32" fill="none" xmlns="http://www.w3.org/2000/svg">
<g clip-path="url(#clip0_495_98)" filter="url(#filter0_d_495_98)">
<path d="M14.8514 18.4717C14.0212 18.4717 13.0105 18.2023 12.1082 17.8877C12.0361 17.8877 12 17.8426 11.9638 17.8426C11.7472 17.7525 11.6028 17.4833 11.675 17.2136C11.7472 16.944 11.9638 16.7638 12.1804 16.8538C12.2166 16.8538 12.2888 16.8989 12.3247 16.8989C12.7217 17.034 13.4438 17.2587 14.1655 17.3933C15.2484 17.5733 15.5731 17.3482 15.6816 17.2587C15.7174 17.2136 15.7897 17.1687 15.7536 16.8538C15.7174 16.5843 15.862 16.3149 16.1148 16.2694C16.3314 16.2245 16.548 16.4046 16.5838 16.7192C16.6561 17.3933 16.4395 17.7982 16.2591 18.0228C15.8982 18.3375 15.4289 18.4717 14.8514 18.4717Z" fill="white"/>
<path d="M10.5548 20.2696C11.3127 20.2696 11.9265 20.5388 12.5037 20.764C13.1174 21.0332 13.659 21.2578 14.4527 21.2578C14.5973 21.2578 14.7416 21.2578 14.85 21.2578C15.5356 21.1683 17.1598 20.2696 18.6398 19.1007C20.589 17.573 21.2023 16.5389 21.1661 16.2691C21.1303 15.7752 20.5167 15.5951 20.1197 15.5951C20.0474 15.5951 19.9754 15.5951 19.9031 15.5951C18.8202 15.7752 17.196 16.9437 16.33 17.8873C16.1854 18.067 15.9688 18.067 15.8245 17.9319C15.6802 17.7978 15.6079 17.5276 15.6802 17.3029C15.716 17.2133 15.716 17.1232 15.6802 16.9881C15.6079 16.4488 14.9582 15.9094 13.8756 15.5051C12.7203 15.1008 11.4211 14.9657 10.591 14.9657C10.1938 14.9657 9.86899 15.0112 9.65252 15.0557C9.39981 15.1008 8.42525 15.5051 7.84787 15.7302L9.18319 20.5388C9.6886 20.3142 10.1218 20.2696 10.5548 20.2696ZM14.4527 22.292C13.5505 22.292 12.8648 22.0219 12.2512 21.7527C11.7098 21.5281 11.2045 21.3033 10.5548 21.3033C10.0856 21.3033 9.61643 21.3929 9.03888 21.663C8.82226 21.7527 8.56973 21.6176 8.49756 21.3484L6.90925 15.5951C6.83722 15.3254 6.94548 15.0558 7.12587 14.9657C7.55894 14.741 9.11105 14.112 9.4359 14.022C9.6886 13.9324 10.0856 13.9324 10.5548 13.9324C11.4572 13.9324 12.8648 14.0675 14.0922 14.5164C15.3913 14.9657 16.1854 15.6402 16.4381 16.4943C17.4487 15.5951 18.7844 14.7865 19.7946 14.6064C19.9031 14.6064 20.0112 14.5614 20.1197 14.5614C20.9857 14.5614 21.9243 15.0557 21.9967 16.1796C22.0325 16.7189 21.7439 17.3479 21.0942 18.112C20.589 18.6963 19.9031 19.3253 19.1091 19.9548C17.7373 21.0332 15.8968 22.202 14.9582 22.292C14.7777 22.2471 14.6335 22.292 14.4527 22.292Z" fill="white"/>
<path d="M4.92455 16.3149L6.7292 22.8318L8.71452 21.9777L6.90959 15.4609L4.92455 16.3149ZM6.47663 24.0003C6.40446 24.0003 6.36827 24.0003 6.2961 23.9552C6.18788 23.9106 6.1157 23.7756 6.07947 23.6405L4.02227 16.1349C3.95013 15.8652 4.05821 15.5509 4.27483 15.4609L7.05404 14.292C7.27066 14.202 7.52333 14.3371 7.5955 14.6068L9.65285 22.1123C9.72499 22.382 9.61677 22.6967 9.40015 22.7864L6.62094 23.9552C6.5488 24.0003 6.51272 24.0003 6.47663 24.0003Z" fill="white"/>
<path d="M6.2604 17.6631C6.15204 17.6631 6.04378 17.618 5.97165 17.528C5.89948 17.4385 5.86328 17.3033 5.86328 17.1687C5.86328 17.0341 5.89948 16.899 5.97165 16.809C6.04378 16.7193 6.15204 16.6743 6.2604 16.6743C6.36866 16.6743 6.47703 16.7193 6.5492 16.809C6.62133 16.899 6.65742 17.0341 6.65742 17.1687C6.65742 17.3033 6.62133 17.4385 6.5492 17.528C6.47703 17.618 6.36866 17.6631 6.2604 17.6631Z" fill="white"/>
<path d="M12.6137 6.6064C12.4693 6.8761 12.2889 7.14535 12.1444 7.41549C11.6029 8.35921 11.0255 9.30292 11.0255 10.067C11.0255 11.3254 11.7473 12.3141 12.6137 12.3141C13.4797 12.3141 14.2018 11.3254 14.2018 10.067C14.2018 9.30292 13.6243 8.35921 13.1188 7.46007C12.9384 7.19082 12.758 6.8761 12.6137 6.6064ZM12.6137 13.3479C11.2782 13.3479 10.1953 11.8648 10.1953 10.067C10.1953 8.9882 10.845 7.86439 11.4586 6.83107C11.7473 6.3367 12.0362 5.84189 12.2527 5.39299C12.3248 5.2129 12.4693 5.12329 12.6137 5.12329C12.758 5.12329 12.9025 5.2129 12.9747 5.39299C13.1911 5.88736 13.4797 6.38128 13.7686 6.83107C14.3822 7.86439 15.0319 8.94318 15.0319 10.067C15.0319 11.8648 13.949 13.3479 12.6137 13.3479Z" fill="white"/>
<path d="M15.6453 1.48335C15.5369 1.70803 15.3926 1.88768 15.2845 2.11235C14.8151 2.87641 14.3458 3.6855 14.3458 4.31494C14.3458 5.34871 14.9233 6.15735 15.6453 6.15735C16.367 6.15735 16.9445 5.34871 16.9445 4.31494C16.9445 3.6855 16.4755 2.87641 16.0062 2.11235C15.8981 1.88768 15.7896 1.663 15.6453 1.48335ZM15.6453 7.19156C14.4539 7.19156 13.5156 5.8881 13.5156 4.31494C13.5156 3.37078 14.0573 2.38249 14.5986 1.48335C14.8513 1.07903 15.1037 0.67471 15.2483 0.269496C15.3203 0.0898475 15.4649 0.000244141 15.6092 0.000244141C15.7534 0.000244141 15.8981 0.0898475 15.97 0.269496C16.1505 0.67471 16.4032 1.07903 16.6559 1.52838C17.1972 2.42707 17.7385 3.37078 17.7385 4.31494C17.8108 5.8881 16.8364 7.19156 15.6453 7.19156Z" fill="white"/>
</g>
<defs>
<filter id="filter0_d_495_98" x="0" y="0" width="26" height="32" filterUnits="userSpaceOnUse" color-interpolation-filters="sRGB">
<feFlood flood-opacity="0" result="BackgroundImageFix"/>
<feColorMatrix in="SourceAlpha" type="matrix" values="0 0 0 0 0 0 0 0 0 0 0 0 0 0 0 0 0 0 127 0" result="hardAlpha"/>
<feOffset dy="4"/>
<feGaussianBlur stdDeviation="2"/>
<feComposite in2="hardAlpha" operator="out"/>
<feColorMatrix type="matrix" values="0 0 0 0 0 0 0 0 0 0 0 0 0 0 0 0 0 0 0.25 0"/>
<feBlend mode="normal" in2="BackgroundImageFix" result="effect1_dropShadow_495_98"/>
<feBlend mode="normal" in="SourceGraphic" in2="effect1_dropShadow_495_98" result="shape"/>
</filter>
<clipPath id="clip0_495_98">
<rect width="18" height="24" fill="white" transform="translate(4)"/>
</clipPath>
</defs>
</svg>
