<svg width="28" height="24" viewBox="0 0 28 24" fill="none" xmlns="http://www.w3.org/2000/svg">
<g clip-path="url(#clip0_495_67)">
<path d="M1.86444 12.5952H3.67935V3.2645C3.67935 2.74624 3.26447 2.38327 2.79779 2.38327C2.27927 2.38327 1.91602 2.79817 1.91602 3.2645V12.5952H1.86444ZM3.93851 13.7875H1.60523C1.08671 13.7875 0.671875 13.3726 0.671875 12.8543V3.2645C0.671875 2.12413 1.60523 1.13904 2.79779 1.13904C3.93851 1.13904 4.92391 2.0722 4.92391 3.2645V12.8024C4.87186 13.3726 4.45703 13.7875 3.93851 13.7875Z" fill="white"/>
<path d="M2.84608 22.5985C2.53488 22.5985 2.22388 22.3399 2.22388 21.9769V13.1645C2.22388 12.8535 2.48303 12.5424 2.84608 12.5424C3.20907 12.5424 3.46823 12.8015 3.46823 13.1645V21.9769C3.41664 22.3399 3.15728 22.5985 2.84608 22.5985Z" fill="white"/>
<path d="M4.87398 22.5985C4.56277 22.5985 4.25162 22.3399 4.25162 21.9769V17.6226C4.25162 17.1563 3.99242 16.7414 3.62963 16.7414H1.86655C1.55535 16.7414 1.24435 17.1563 1.24435 17.6226V21.9769C1.24435 22.288 0.985194 22.5985 0.622149 22.5985C0.259155 22.5985 0 22.3399 0 21.9769V17.6226C0 16.4823 0.829464 15.5491 1.81492 15.5491H3.57779C4.56278 15.5491 5.3925 16.4823 5.3925 17.6226V21.9769C5.49638 22.3399 5.18518 22.5985 4.87398 22.5985Z" fill="white"/>
<path d="M24.6797 12.2833V20.3702C24.6797 20.9399 25.1462 21.4067 25.7166 21.4067C26.2874 21.4067 26.7539 20.9399 26.7539 20.3702V2.27906C24.6797 2.5896 23.0725 4.55979 23.0725 6.94387C23.0725 8.75828 24.006 10.3655 25.5093 11.1429C25.7685 11.2982 25.8724 11.5573 25.8205 11.8169C25.7685 12.0761 25.5093 12.2833 25.2501 12.2833H24.6797ZM25.7166 22.5985C24.4725 22.5985 23.4871 21.6139 23.4871 20.3702V11.6612C23.4871 11.5059 23.539 11.3501 23.6429 11.2462C22.5017 10.1578 21.8799 8.60301 21.8799 6.89246C21.8799 3.62662 24.3686 0.98291 27.3762 0.98291C27.6874 0.98291 27.9985 1.24203 27.9985 1.60501V20.3702C27.9466 21.6139 26.9097 22.5985 25.7166 22.5985Z" fill="white"/>
<path d="M13.9 4.76736C9.9073 4.76736 6.69251 7.98127 6.69251 11.9726C6.69251 15.9639 9.9073 19.1778 13.9 19.1778C17.8924 19.1778 21.1078 15.9639 21.1078 11.9726C21.1078 7.98127 17.841 4.76736 13.9 4.76736ZM13.9 20.3706C9.2851 20.3706 5.5 16.586 5.5 11.9726C5.5 7.35916 9.2851 3.57507 13.9 3.57507C18.5147 3.57507 22.3005 7.35916 22.3005 11.9726C22.3005 16.586 18.5147 20.3706 13.9 20.3706Z" fill="white"/>
<path d="M13.9 4.76736C9.9073 4.76736 6.69251 7.98127 6.69251 11.9726C6.69251 15.9639 9.9073 19.1778 13.9 19.1778C17.8924 19.1778 21.1078 15.9639 21.1078 11.9726C21.1078 7.98127 17.841 4.76736 13.9 4.76736ZM13.9 20.3706C9.2851 20.3706 5.5 16.586 5.5 11.9726C5.5 7.35916 9.2851 3.57507 13.9 3.57507C18.5147 3.57507 22.3005 7.35916 22.3005 11.9726C22.3005 16.586 18.5147 20.3706 13.9 20.3706Z" fill="white"/>
<path d="M13.902 23.9995C11.2057 23.9995 8.66474 23.1183 6.59087 21.5111C6.33167 21.3039 6.27967 20.9409 6.48699 20.6817C6.69451 20.4226 7.05734 20.3712 7.31671 20.5784C9.2353 22.0293 11.5169 22.8072 13.902 22.8072C14.2131 22.8072 14.5242 23.0664 14.5242 23.4293C14.4723 23.6885 14.2131 23.9995 13.902 23.9995Z" fill="white"/>
<path d="M6.32996 4.04286C6.17408 4.04286 6.01881 3.99144 5.86308 3.83566C5.65556 3.57653 5.65556 3.21354 5.91492 3.00634C8.09288 1.03666 10.9448 -0.000366211 13.9003 -0.000366211C16.804 -0.000366211 19.5524 1.03667 21.7299 2.90249C21.9896 3.11021 21.9896 3.47267 21.7819 3.7318C21.5746 3.99144 21.2115 3.99144 20.9523 3.78373C18.9815 2.07317 16.4928 1.14001 13.9003 1.14001C11.256 1.14001 8.71503 2.1251 6.74485 3.83566C6.58917 3.99144 6.43365 4.04286 6.32996 4.04286Z" fill="white"/>
<path d="M10.7842 11.974H13.0658C13.3768 11.974 13.688 12.2332 13.688 12.5961V16.7432L17.0582 11.4038H14.7768C14.4656 11.4038 14.1545 11.1447 14.1545 10.7817V6.63464L10.7842 11.974ZM13.0137 19.4384C12.9621 19.4384 12.9101 19.4384 12.8585 19.4384C12.5991 19.3869 12.4436 19.1278 12.4436 18.8687V13.1663H9.69531C9.48779 13.1663 9.28043 13.0625 9.17679 12.8553C9.0729 12.6481 9.0729 12.4409 9.17679 12.2332L14.2064 4.19864C14.3622 3.99144 14.6214 3.88758 14.8806 3.93951C15.1399 3.99144 15.2952 4.25057 15.2952 4.5097V10.1596H18.0436C18.2509 10.1596 18.4586 10.2635 18.562 10.4707C18.6659 10.6784 18.6659 10.8856 18.562 11.0928L13.5325 19.1278C13.4288 19.335 13.2213 19.4384 13.0137 19.4384Z" fill="white"/>
</g>
<defs>
<clipPath id="clip0_495_67">
<rect width="28" height="24" fill="white"/>
</clipPath>
</defs>
</svg>
