<svg width="24" height="24" viewBox="0 0 24 24" fill="none" xmlns="http://www.w3.org/2000/svg">
<g clip-path="url(#clip0_495_77)">
<path d="M4.83021 4.18698H10.4074V3.15081H4.83021V4.18698ZM10.9344 5.2227H4.30318C4.03965 5.2227 3.77612 4.99716 3.77612 4.68229V2.61084C3.77612 2.34063 3.99566 2.07043 4.30318 2.07043H10.9344C11.1979 2.07043 11.4615 2.29552 11.4615 2.61084V4.68229C11.4175 4.99716 11.1979 5.2227 10.9344 5.2227Z" fill="white"/>
<path d="M5.1355 14.0942H6.1456V15.1304H5.1355V14.0942Z" fill="white"/>
<path d="M6.63037 14.0942H7.64048V15.1304H6.63037V14.0942Z" fill="white"/>
<path d="M8.16675 14.0942H9.1773V15.1304H8.16675V14.0942Z" fill="white"/>
<path d="M9.7085 14.0942H10.7186V15.1304H9.7085V14.0942Z" fill="white"/>
<path d="M21.3873 24.0002H0.527054C0.263529 24.0002 0 23.7751 0 23.4598C0 23.145 0.219536 22.9194 0.527054 22.9194H21.3873C21.6504 22.9194 21.9144 23.145 21.9144 23.4598C21.9144 23.7751 21.6944 24.0002 21.3873 24.0002Z" fill="white"/>
<path d="M7.68311 24.0002C3.46715 24.0002 0.041748 20.488 0.041748 16.1651C0.041748 12.9682 1.93041 10.0866 4.82875 8.91554V4.68288C4.82875 4.41267 5.04829 4.14246 5.35581 4.14246H9.92285C10.1864 4.14246 10.4495 4.36756 10.4495 4.68288V8.87043C12.3821 9.63594 13.9193 11.1669 14.7534 13.1482C14.7974 13.2835 14.7974 13.4635 14.7534 13.5988L13.2167 16.7055C13.0847 16.9757 12.7772 17.066 12.5141 16.9306C12.2502 16.7957 12.1626 16.4804 12.2946 16.2107L13.7438 13.3286C12.9527 11.6171 11.548 10.3563 9.83487 9.72615C9.61533 9.63594 9.48379 9.45594 9.48379 9.23084V5.22329H5.92685V9.27551C5.92685 9.50105 5.79487 9.68105 5.57534 9.77126C2.94009 10.7167 1.13941 13.2835 1.13941 16.1651C1.13941 19.9025 4.12618 22.965 7.7711 22.965C8.21016 22.965 8.64965 22.9194 9.04472 22.8296L9.35224 22.1995C8.82519 22.3794 8.25371 22.4246 7.7271 22.4246C4.52124 22.4246 1.886 19.7225 1.886 16.4358C1.886 15.2196 2.2375 14.049 2.89653 13.0128C3.55513 12.0227 4.47726 11.3018 5.53136 10.8521C5.79488 10.7614 6.10239 10.8967 6.18994 11.1218C6.27792 11.3925 6.14594 11.7074 5.92685 11.7976C4.08217 12.5631 2.89653 14.3643 2.89653 16.3902C2.89653 19.1369 5.04829 21.3437 7.7271 21.3437C8.60522 21.3437 9.43979 21.1186 10.1864 20.6233C10.3619 20.488 10.6259 20.5331 10.801 20.668C10.9765 20.848 11.021 21.0735 10.889 21.2986L9.83487 23.4598C9.74731 23.5952 9.65933 23.6854 9.48379 23.7305C8.82519 23.9551 8.25372 24.0002 7.68311 24.0002Z" fill="white"/>
<path d="M7.59622 22.469C4.38993 22.469 1.75513 19.7674 1.75513 16.4802C1.75513 15.2641 2.10664 14.0935 2.76523 13.0582C3.42426 12.0671 4.34638 11.3467 5.40048 10.8965C5.66357 10.8063 5.97108 10.9416 6.05864 11.1667C6.14662 11.4369 6.01508 11.7523 5.79554 11.842C3.95087 12.6075 2.76523 14.4088 2.76523 16.4355C2.76523 19.1818 4.91698 21.3882 7.59622 21.3882C8.47435 21.3882 9.30849 21.1631 10.0551 20.6678C10.275 20.5329 10.6265 20.6231 10.7577 20.8477C10.8896 21.0733 10.8017 21.4337 10.5821 21.5686C9.704 22.1541 8.65032 22.469 7.59622 22.469Z" fill="white"/>
<path d="M10.0112 22.965H22.6147L17.8716 13.5086C17.8281 13.4188 17.8281 13.3733 17.8281 13.2835V6.30366H14.7978V13.2835C14.7978 13.3733 14.7977 13.4635 14.7538 13.5086L10.0112 22.965ZM23.4492 24.0002H9.17705C9.00108 24.0002 8.82553 23.9105 8.73754 23.7305C8.64999 23.55 8.64999 23.3701 8.73754 23.2347L13.7877 13.1482V5.76369C13.7877 5.49348 14.0072 5.22327 14.3147 5.22327H18.3551C18.6182 5.22327 18.8822 5.44837 18.8822 5.76369V13.1482L23.9327 23.2798C24.0203 23.4598 24.0203 23.6398 23.9327 23.7751C23.7567 23.9105 23.6247 24.0002 23.4492 24.0002Z" fill="white"/>
<path d="M15.281 6.30342C15.0179 6.30342 14.7539 6.07831 14.7539 5.76344V3.37669C14.7539 2.11587 13.8758 1.08014 12.7777 1.08014H6.14648C5.88296 1.08014 5.61987 0.855045 5.61987 0.539729C5.61987 0.224859 5.83896 -0.000244141 6.14648 -0.000244141H12.8221C14.4909 -0.000244141 15.8081 1.48568 15.8081 3.37669V5.76344C15.8081 6.03321 15.5885 6.30342 15.281 6.30342Z" fill="white"/>
<path d="M17.3449 6.30348C17.0814 6.30348 16.8179 6.07837 16.8179 5.7635V1.0802C16.8179 0.809996 17.0374 0.539795 17.3449 0.539795C17.6085 0.539795 17.8715 0.765334 17.8715 1.0802V5.7635C17.828 6.03327 17.6085 6.30348 17.3449 6.30348Z" fill="white"/>
<path d="M18.3587 19.8583C18.2268 19.8583 18.0952 19.8132 18.0072 19.7229C17.9197 19.6332 17.8752 19.4978 17.8752 19.3625C17.8752 19.2281 17.9197 19.0928 18.0072 19.0025C18.0952 18.9123 18.2268 18.8677 18.3587 18.8677C18.4907 18.8677 18.6218 18.9123 18.7098 19.0025C18.7978 19.0928 18.8418 19.2281 18.8418 19.3625C18.8418 19.4978 18.7978 19.6332 18.7098 19.7229C18.6218 19.8132 18.4907 19.8583 18.3587 19.8583Z" fill="white"/>
<path d="M16.2962 18.2814C16.1643 18.2814 16.0323 18.2363 15.9447 18.1465C15.8567 18.0558 15.8127 17.9214 15.8127 17.7861C15.8127 17.6507 15.8567 17.5159 15.9447 17.4256C16.0323 17.3359 16.1643 17.2908 16.2962 17.2908C16.4273 17.2908 16.5593 17.3359 16.6473 17.4256C16.7348 17.5159 16.7788 17.6507 16.7788 17.7861C16.7788 17.9214 16.7348 18.0558 16.6473 18.1465C16.5593 18.2363 16.4718 18.2814 16.2962 18.2814Z" fill="white"/>
<path d="M15.8085 16.2111C15.6766 16.2111 15.5455 16.1655 15.4575 16.0757C15.3695 15.9855 15.2815 15.8051 15.2815 15.6707C15.2815 15.5353 15.3255 15.4 15.4135 15.3102C15.501 15.22 15.633 15.1749 15.765 15.1749C15.8961 15.1749 16.0281 15.22 16.1161 15.3102C16.2036 15.4 16.2476 15.5353 16.2476 15.6707C16.2476 15.8051 16.2036 15.9404 16.1161 16.0306C16.0721 16.1204 15.9405 16.2111 15.8085 16.2111Z" fill="white"/>
<path d="M13.7904 20.3531C13.6589 20.3531 13.5274 20.308 13.4394 20.2178C13.3518 20.128 13.3074 19.9927 13.3074 19.8578C13.3074 19.7225 13.3518 19.5876 13.4394 19.4974C13.5274 19.4076 13.6589 19.3621 13.7904 19.3621C13.9224 19.3621 14.054 19.4076 14.1419 19.4974C14.2295 19.5876 14.2739 19.7225 14.2739 19.8578C14.2739 19.9927 14.2295 20.128 14.1419 20.2178C14.054 20.308 13.9224 20.3531 13.7904 20.3531Z" fill="white"/>
<path d="M16.8165 21.9286C16.685 21.9286 16.553 21.8839 16.4655 21.7942C16.3775 21.7035 16.3335 21.5686 16.3335 21.4337C16.3335 21.2984 16.3775 21.1631 16.4655 21.0733C16.553 20.9831 16.685 20.9384 16.8165 20.9384C16.9481 20.9384 17.0801 20.9831 17.1681 21.0733C17.2556 21.1631 17.2996 21.2984 17.2996 21.4337C17.2996 21.5686 17.2556 21.7035 17.1681 21.7942C17.0801 21.8839 16.9481 21.9286 16.8165 21.9286Z" fill="white"/>
<path d="M18.3555 7.83474H16.8184C16.5548 7.83474 16.2917 7.6092 16.2917 7.29433C16.2917 7.02367 16.5108 6.75391 16.8184 6.75391H18.3555C18.6186 6.75391 18.8826 6.97901 18.8826 7.29433C18.8386 7.6092 18.6186 7.83474 18.3555 7.83474Z" fill="white"/>
<path d="M18.3555 9.41152H16.8184C16.5548 9.41152 16.2917 9.18643 16.2917 8.87111C16.2917 8.60135 16.5108 8.33069 16.8184 8.33069H18.3555C18.6186 8.33069 18.8826 8.55579 18.8826 8.87111C18.8386 9.18643 18.6186 9.41152 18.3555 9.41152Z" fill="white"/>
<path d="M18.3555 10.9871H16.8184C16.5548 10.9871 16.2917 10.7615 16.2917 10.4467C16.2917 10.1764 16.5108 9.90625 16.8184 9.90625H18.3555C18.6186 9.90625 18.8826 10.1313 18.8826 10.4467C18.8826 10.7615 18.6186 10.9871 18.3555 10.9871Z" fill="white"/>
<path d="M12.2515 17.2462H7.15743C6.8939 17.2462 6.63037 17.0211 6.63037 16.7058C6.63037 16.3905 6.85034 16.1654 7.15743 16.1654H12.2515C12.5155 16.1654 12.7786 16.3905 12.7786 16.7058C12.7786 17.0211 12.5155 17.2462 12.2515 17.2462Z" fill="white"/>
</g>
<defs>
<clipPath id="clip0_495_77">
<rect width="24" height="24" fill="white"/>
</clipPath>
</defs>
</svg>
